<svg width="148" height="147" viewBox="0 0 148 147" fill="none" xmlns="http://www.w3.org/2000/svg">
<g filter="url(#filter0_i_15_1948)">
<ellipse cx="73.78" cy="73.1636" rx="73.78" ry="73.1636" fill="#5BAEDD"/>
</g>
<path d="M138.88 73.1636C138.88 108.817 109.733 137.72 73.7797 137.72C37.8259 137.72 8.67969 108.817 8.67969 73.1636C8.67969 37.5102 37.8259 8.60748 73.7797 8.60748C109.733 8.60748 138.88 37.5102 138.88 73.1636Z" fill="white"/>
<path d="M138.88 73.1636C138.88 108.817 109.733 137.72 73.7797 137.72C37.8259 137.72 8.67969 108.817 8.67969 73.1636C8.67969 37.5102 37.8259 8.60748 73.7797 8.60748C109.733 8.60748 138.88 37.5102 138.88 73.1636Z" fill="white"/>
<path d="M138.88 73.1636C138.88 108.817 109.733 137.72 73.7797 137.72C37.8259 137.72 8.67969 108.817 8.67969 73.1636C8.67969 37.5102 37.8259 8.60748 73.7797 8.60748C109.733 8.60748 138.88 37.5102 138.88 73.1636Z" fill="white"/>
<path d="M138.88 73.1636C138.88 108.817 109.733 137.72 73.7797 137.72C37.8259 137.72 8.67969 108.817 8.67969 73.1636C8.67969 37.5102 37.8259 8.60748 73.7797 8.60748C109.733 8.60748 138.88 37.5102 138.88 73.1636Z" fill="white"/>
<defs>
<filter id="filter0_i_15_1948" x="0" y="0" width="147.56" height="150.327" filterUnits="userSpaceOnUse" color-interpolation-filters="sRGB">
<feFlood flood-opacity="0" result="BackgroundImageFix"/>
<feBlend mode="normal" in="SourceGraphic" in2="BackgroundImageFix" result="shape"/>
<feColorMatrix in="SourceAlpha" type="matrix" values="0 0 0 0 0 0 0 0 0 0 0 0 0 0 0 0 0 0 127 0" result="hardAlpha"/>
<feOffset dy="4"/>
<feGaussianBlur stdDeviation="2"/>
<feComposite in2="hardAlpha" operator="arithmetic" k2="-1" k3="1"/>
<feColorMatrix type="matrix" values="0 0 0 0 0 0 0 0 0 0 0 0 0 0 0 0 0 0 0.25 0"/>
<feBlend mode="normal" in2="shape" result="effect1_innerShadow_15_1948"/>
</filter>
</defs>
</svg>
