<svg width="1160" height="1002" viewBox="0 0 1160 1002" fill="none" xmlns="http://www.w3.org/2000/svg">
<path d="M86.104 1.5H1072.97C1085.95 1.5 1096.47 12.0213 1096.47 25V850.558C1096.47 863.537 1085.95 874.058 1072.97 874.058H86.104C73.1253 874.058 62.604 863.537 62.604 850.558V25C62.604 12.0213 73.1253 1.5 86.104 1.5Z" fill="#CDD8E9" stroke="black" stroke-width="3"/>
<path d="M75.9343 751.978H81.0733C88.5292 751.978 94.5733 758.022 94.5733 765.478V901.075H62.4343V765.478C62.4343 758.022 68.4785 751.978 75.9343 751.978Z" fill="#CDD8E9" stroke="black" stroke-width="3"/>
<path d="M1078 751.978H1083.14C1090.6 751.978 1096.64 758.022 1096.64 765.478V901.075H1064.5V765.478C1064.5 758.022 1070.55 751.978 1078 751.978Z" fill="#CDD8E9" stroke="black" stroke-width="3"/>
<path d="M1036.38 944.839L964.657 878.045C963.994 877.427 964.439 876.311 965.348 876.311L1028.1 876.33L1095.1 876.38C1095.38 876.38 1095.65 876.497 1095.83 876.701L1157.64 943.944" stroke="black" stroke-width="3"/>
<path d="M1035.14 998.75L1153.21 1000.44L1156.99 944.711L1154.59 944.293L1096.7 942.247L1036.34 941.383L1035.14 998.75Z" fill="#CDD8E9" stroke="black" stroke-width="3"/>
<path d="M970.727 877.009L783.926 874.336L904.092 936.996L1032.71 997.941L1037.07 940.872L970.727 877.009Z" fill="#CDD8E9" stroke="black" stroke-width="3"/>
<path d="M1094.67 877.283L973.028 876.822L1005.65 908.946L1022.39 924.739L1038.29 939.911L1097.18 940.754L1127.03 941.791L1155.18 942.804L1094.67 877.283Z" fill="#CDD8E9"/>
<path d="M123.547 943.718L195.27 876.927C195.933 876.309 195.489 875.193 194.579 875.194L131.827 875.21L64.8251 875.257C64.5468 875.257 64.2818 875.373 64.0941 875.578L2.28475 942.818" stroke="black" stroke-width="3"/>
<path d="M124.785 997.625L6.71605 999.314L2.932 943.584L5.33724 943.167L63.2254 941.121L123.582 940.258L124.785 997.625Z" fill="#CDD8E9" stroke="black" stroke-width="3"/>
<path d="M189.2 875.885L376 873.212L255.834 935.872L127.218 996.816L122.856 939.747L189.2 875.885Z" fill="#CDD8E9" stroke="black" stroke-width="3"/>
<path d="M65.2612 876.158L186.899 875.698L154.28 907.821L137.538 923.614L121.637 938.786L62.7512 939.628L32.8946 940.665L4.74481 941.678L65.2612 876.158Z" fill="#CDD8E9"/>
</svg>
